<svg xmlns="http://www.w3.org/2000/svg" viewBox="0 0 234 234" fill="none" class=""><g clip-path="url(#clip0_250_383)" class="i-cogicon"><path d="M109.85 31.571s3.463-.405 6.926-.405 6.926.405 6.926.405l2.934 12.555a40.295 40.295 0 0 1 10.966 4.546l10.955-6.805s2.735 2.162 5.184 4.61c2.448 2.449 4.611 5.184 4.611 5.184l-6.806 10.955a40.284 40.284 0 0 1 4.546 10.966l12.555 2.934s.405 3.463.405 6.926-.405 6.926-.405 6.926l-12.555 2.934a40.294 40.294 0 0 1-4.546 10.966l6.806 10.955s-2.163 2.735-4.611 5.184c-2.449 2.448-5.184 4.611-5.184 4.611l-10.955-6.806a40.298 40.298 0 0 1-10.966 4.546l-2.934 12.555s-3.463.405-6.926.405-6.926-.405-6.926-.405l-2.933-12.555a40.28 40.28 0 0 1-10.967-4.546l-10.955 6.806s-2.735-2.163-5.184-4.611c-2.448-2.449-4.61-5.184-4.61-5.184l6.805-10.955a40.293 40.293 0 0 1-4.546-10.966l-12.555-2.934s-.405-3.463-.405-6.926.405-6.926.405-6.926l12.555-2.934a40.286 40.286 0 0 1 4.546-10.966L75.2 51.661s2.162-2.735 4.61-5.184c2.449-2.448 5.184-4.61 5.184-4.61l10.955 6.805a40.28 40.28 0 0 1 10.967-4.546l2.933-12.555Z" fill="#D85427" class="i-cogicon__cog"/><path d="M128.962 88.144a13.567 13.567 0 0 1-4.72 5.582c-2.179 1.45-4.721 2.247-7.48 2.32-1.888 0-3.631-.363-5.229-1.016a14.199 14.199 0 0 1-5.955-4.928c-1.452-2.175-2.251-4.712-2.324-7.466 0-1.885.363-3.624 1.017-5.22 1.017-2.391 2.76-4.493 4.866-5.87 2.178-1.45 4.72-2.247 7.479-2.32 1.889 0 3.632.362 5.229 1.015 2.397 1.015 4.503 2.754 5.882 4.856.364.58.727 1.16 1.017 1.813l14.887-3.842c-.218-.58-.435-1.087-.653-1.667-2.179-5.147-5.81-9.496-10.385-12.613a28.385 28.385 0 0 0-16.049-4.928c-3.776.144-7.553.942-10.966 2.391-5.156 2.175-9.513 5.8-12.636 10.366a28.26 28.26 0 0 0-4.938 16.019c0 3.914.799 7.683 2.251 11.162 2.179 5.147 5.81 9.496 10.385 12.613a28.392 28.392 0 0 0 16.049 4.929c3.922 0 7.698-.798 11.184-2.248 5.156-2.174 9.513-5.798 12.636-10.365 1.379-2.03 2.469-4.204 3.34-6.596l-14.887-3.987Z" fill="#fff" class="i-cogicon__c"/></g><g class="i-logotype"><path d="M3.934 171.663c0-6.989 5.193-12.376 12.375-12.376 4.31 0 8.122 2.155 10.194 5.497l-4.696 2.707c-1.05-1.823-3.094-2.928-5.498-2.928-4.226 0-6.933 2.818-6.933 7.072s2.707 7.072 6.933 7.072c2.404 0 4.476-1.077 5.498-2.928l4.696 2.707c-2.044 3.37-5.857 5.497-10.194 5.497-7.154.055-12.375-5.304-12.375-12.32ZM28.215 175.061c0-5.056 4.006-8.978 9.006-8.978s9.006 3.895 9.006 8.978c0 5.055-4.006 8.977-9.006 8.977s-9.005-3.895-9.005-8.977Zm12.901 0c0-2.404-1.713-4.006-3.895-4.006s-3.895 1.602-3.895 4.006c0 2.403 1.713 4.005 3.895 4.005s3.895-1.575 3.895-4.005ZM86.586 173.127v10.442h-5.11v-9.696c0-2.1-1.327-3.094-2.957-3.094-1.878 0-3.149 1.077-3.149 3.508v9.282h-5.11V166.58h5.11v1.602c.912-1.271 2.624-2.072 4.862-2.072 3.425 0 6.354 2.431 6.354 7.017ZM89.597 162.022c0-1.658 1.38-3.066 3.066-3.066 1.657 0 3.066 1.381 3.066 3.066 0 1.657-1.38 3.066-3.066 3.066-1.685 0-3.066-1.409-3.066-3.066Zm.497 4.558h5.11v16.989h-5.11V166.58ZM105.398 171.469v6.022c0 1.465 1.271 1.603 3.508 1.465v4.613c-6.657.69-8.591-1.326-8.591-6.078v-6.022h-2.707v-4.889h2.707v-3.232l5.11-1.52v4.752h3.509v4.889h-3.536ZM110.591 175.061c0-5.056 4.006-8.978 9.006-8.978s9.005 3.895 9.005 8.978c0 5.055-4.005 8.977-9.005 8.977-5 0-9.006-3.895-9.006-8.977Zm12.901 0c0-2.404-1.713-4.006-3.895-4.006-2.183 0-3.895 1.602-3.895 4.006 0 2.403 1.712 4.005 3.895 4.005 2.182 0 3.895-1.575 3.895-4.005ZM143.215 165.005v4.586h8.84v5.221h-8.84v8.729h-5.442v-23.757h14.448v5.221h-9.006ZM154.431 175.061c0-5.056 4.005-8.978 9.005-8.978 5 0 9.006 3.895 9.006 8.978 0 5.055-4.006 8.977-9.006 8.977s-9.005-3.895-9.005-8.977Zm12.901 0c0-2.404-1.713-4.006-3.896-4.006-2.182 0-3.895 1.602-3.895 4.006 0 2.403 1.713 4.005 3.895 4.005 2.183 0 3.896-1.575 3.896-4.005ZM185.508 166.221v5.773c-2.099-.331-5.11.497-5.11 3.868v7.679h-5.111V166.58h5.111v3.011c.69-2.265 2.983-3.37 5.11-3.37ZM213.381 173.127v10.442h-5.11v-10c0-1.713-.829-2.79-2.459-2.79-1.713 0-2.652 1.188-2.652 3.204v9.586h-5.11v-10c0-1.713-.829-2.79-2.459-2.79-1.713 0-2.652 1.188-2.652 3.204v9.586h-5.11V166.58h5.11v1.574c.774-1.16 2.265-2.044 4.558-2.044 2.017 0 3.509.829 4.448 2.238.939-1.354 2.514-2.238 4.917-2.238 3.978 0 6.519 2.763 6.519 7.017ZM230.066 178.458c0 3.895-3.397 5.58-7.072 5.58-3.397 0-5.994-1.298-7.292-4.033l4.42-2.514c.442 1.299 1.381 2.017 2.9 2.017 1.216 0 1.823-.387 1.823-1.05 0-1.878-8.37-.884-8.37-6.768 0-3.701 3.122-5.58 6.658-5.58 2.762 0 5.193 1.216 6.629 3.647l-4.337 2.348c-.469-.884-1.16-1.492-2.265-1.492-.884 0-1.436.332-1.436.939 0 1.906 8.342.636 8.342 6.906ZM66.53 166.58v16.132c0 5.719-4.447 8.122-8.977 8.122-3.536 0-6.492-1.326-8.067-4.116l4.337-2.514c.636 1.188 1.63 2.155 3.868 2.155 2.375 0 3.84-1.216 3.84-3.647v-1.574c-1.133 1.381-2.763 2.21-4.973 2.21-4.834 0-8.37-3.95-8.37-8.619 0-4.668 3.536-8.619 8.37-8.619 2.21 0 3.84.829 4.972 2.21v-1.74h5Zm-4.944 8.149c0-2.348-1.713-3.95-4.116-3.95-2.404 0-4.116 1.602-4.116 3.95s1.712 3.95 4.116 3.95c2.403 0 4.116-1.602 4.116-3.95Z" fill="#234652" class="i-logotype_2"/></g><defs><clipPath class="i-clip0_250_383"><path fill="#fff" transform="translate(64.5 31.166)" d="M0 0h105v105H0z"/></clipPath></defs></svg>